<?xml version="1.0" encoding="UTF-8" standalone="no"?>
<svg
   xmlns:dc="http://purl.org/dc/elements/1.1/"
   xmlns:cc="http://creativecommons.org/ns#"
   xmlns:rdf="http://www.w3.org/1999/02/22-rdf-syntax-ns#"
   xmlns:svg="http://www.w3.org/2000/svg"
   xmlns="http://www.w3.org/2000/svg"
   xmlns:sodipodi="http://sodipodi.sourceforge.net/DTD/sodipodi-0.dtd"
   xmlns:inkscape="http://www.inkscape.org/namespaces/inkscape"
   id="fcc143ea-52ad-438e-9e3d-3172c539f37d"
   data-name="Layer 1"
   width="470.811"
   height="579.52698"
   viewBox="0 0 470.811 579.52699"
   version="1.1"
   sodipodi:docname="register2.svg"
   inkscape:version="0.92.3 (2405546, 2018-03-11)">
  <metadata
     id="metadata91">
    <rdf:RDF>
      <cc:Work
         rdf:about="">
        <dc:format>image/svg+xml</dc:format>
        <dc:type
           rdf:resource="http://purl.org/dc/dcmitype/StillImage" />
        <dc:title>add_content</dc:title>
      </cc:Work>
    </rdf:RDF>
  </metadata>
  <defs
     id="defs89" />
  <sodipodi:namedview
     pagecolor="#ffffff"
     bordercolor="#666666"
     borderopacity="1"
     objecttolerance="10"
     gridtolerance="10"
     guidetolerance="10"
     inkscape:pageopacity="0"
     inkscape:pageshadow="2"
     inkscape:window-width="1920"
     inkscape:window-height="1025"
     id="namedview87"
     showgrid="false"
     inkscape:zoom="0.96286109"
     inkscape:cx="459.01425"
     inkscape:cy="326.6905"
     inkscape:window-x="0"
     inkscape:window-y="28"
     inkscape:window-maximized="1"
     inkscape:current-layer="fcc143ea-52ad-438e-9e3d-3172c539f37d" />
  <title
     id="title2">add_content</title>
  <g
     id="g4661"
     transform="translate(-226.40857,-66.992354)">
    <path
       style="fill:#f2f2f2"
       inkscape:connector-curvature="0"
       id="path4"
       d="m 280.61955,637.1727 -15.17241,-42.48278 c 0,0 16.68966,8.34482 17.44828,18.96551 0,0 -3.79311,-53.10345 -11.37931,-64.48276 0,0 12.13793,1.51725 25.7931,60.68966 0,0 2.27586,-68.27586 -18.2069,-88 0,0 28.069,22.75862 30.34483,72.069 v 43.24138 z" />
    <path
       style="fill:#f2f2f2"
       inkscape:connector-curvature="0"
       id="path6"
       d="m 501.10857,640.69921 10,-28 c 0,0 -11,5.5 -11.5,12.5 0,0 2.5,-35.00007 7.5,-42.50008 0,0 -8,1 -17,40.00008 0,0 -1.5,-45.00009 12,-58.00012 0,0 -18.5,15 -20,47.5001 v 28.50002 z" />
    <path
       style="fill:#f2f2f2"
       inkscape:connector-curvature="0"
       id="path8"
       d="m 632.87814,636.54492 -7.931,-22.2069 c 0,0 8.72414,4.36207 9.12069,9.9138 0,0 -1.98276,-27.75862 -5.94828,-33.7069 0,0 6.34483,0.7931 13.48276,31.72414 0,0 1.18966,-35.68966 -9.51724,-46 0,0 14.67241,11.89655 15.86207,37.67241 v 22.60345 z" />
    <path
       style="fill:#e6e6e6"
       inkscape:connector-curvature="0"
       id="path10"
       d="m 464.1571,510.89389 c -4,0 -8.02442,-0.12891 -11.98535,-0.38086 l 0.12695,-1.9961 c 3.92383,0.25 7.90918,0.377 11.84766,0.377 l 0.11816,-0.001 v 2 l -0.0937,0.001 z m 12.20605,-0.39746 -0.13086,-1.9961 c 3.9668,-0.25879 7.97559,-0.65136 11.91407,-1.166 l 0.25976,1.98242 c -3.98142,0.52147 -8.0332,0.91796 -12.04297,1.17968 z m -36.2373,-1.14649 c -3.98828,-0.51758 -8.00684,-1.17285 -11.94434,-1.94922 l 0.38672,-1.96289 c 3.89453,0.76856 7.87012,1.417 11.81543,1.92774 z m 60.22168,-1.998 -0.38867,-1.96094 c 3.89648,-0.77344 7.81933,-1.68653 11.6582,-2.71387 l 0.51758,1.93164 c -3.88086,1.03902 -7.84668,1.96188 -11.78711,2.74313 z m -83.95606,-2.68067 c -3.875,-1.03223 -7.77343,-2.209 -11.58593,-3.499 l 0.64062,-1.89453 c 3.77149,1.27539 7.62744,2.44043 11.46,3.46093 z m 107.32423,-3.57719 -0.64258,-1.89453 c 3.751,-1.27441 7.5127,-2.69238 11.18164,-4.21582 l 0.76758,1.84766 c -3.70997,1.53906 -7.51364,2.97363 -11.30664,4.26269 z m -130.25781,-4.18554 c -3.71094,-1.53516 -7.4248,-3.2168 -11.03857,-4.999 l 0.88476,-1.793 c 3.57422,1.76172 7.24756,3.42579 10.91846,4.94434 z m 152.57129,-5.07618 -0.88672,-1.793 c 3.5625,-1.76172 7.10938,-3.66211 10.542,-5.64844 l 1.002,1.73047 c -3.47076,2.00883 -7.05576,3.9307 -10.65729,5.71097 z m -174.293,-5.63574 c -3.481,-2.01074 -6.94091,-4.16406 -10.28368,-6.39941 l 1.11133,-1.66211 c 3.30713,2.21094 6.72949,4.34082 10.17235,6.3291 z m 195.21388,-6.47363 -1.11328,-1.66211 c 3.29687,-2.20605 6.56738,-4.55371 9.72168,-6.97852 l 1.21875,1.58594 c -3.18851,2.45117 -6.49511,4.82422 -9.82714,7.05469 z M 351.6107,472.74154 c -3.186,-2.44531 -6.335,-5.02929 -9.35937,-7.67968 l 1.31836,-1.50391 c 2.9917,2.62207 6.10693,5.17773 9.25879,7.59766 z m 234.5171,-7.75538 -1.32031,-1.50293 c 2.98633,-2.62158 5.92578,-5.37549 8.7373,-8.186 l 1.41407,1.41406 c -2.8418,2.84129 -5.8125,5.62498 -8.83106,8.27487 z m -252.71435,-8.1953 c -2.84424,-2.84033 -5.63037,-5.80957 -8.28077,-8.82617 l 1.502,-1.32031 c 2.62256,2.98388 5.37842,5.92187 8.19189,8.73144 z m 269.82274,-8.91211 -1.5039,-1.31933 c 2.62305,-2.98877 5.18164,-6.10206 7.60352,-9.25391 l 1.58594,1.21875 c -2.44825,3.18603 -5.03418,6.33301 -7.68556,9.35449 z M 317.4447,438.61996 c -2.44922,-3.1831 -4.8252,-6.48779 -7.06153,-9.82226 l 1.66114,-1.11426 c 2.21191,3.29931 4.5625,6.56836 6.98535,9.7168 z m 300.53955,-9.93359 -1.66211,-1.11231 c 2.21289,-3.30664 4.34472,-6.72754 6.33594,-10.16894 l 1.73046,1.00195 c -2.01269,3.47852 -4.16699,6.93701 -6.40429,10.2793 z M 303.97839,418.53793 c -2.01514,-3.47656 -3.939,-7.061 -5.71778,-10.65381 l 1.792,-0.88769 c 1.75976,3.55371 3.66308,7.09961 5.65625,10.53857 z m 326.12988,-10.81055 -1.793,-0.88574 c 1.76074,-3.564 3.42676,-7.23633 4.95215,-10.915 l 1.84766,0.76563 c -1.54197,3.7192 -3.22654,7.43209 -5.00681,11.03511 z M 293.25475,396.8807 c -1.541,-3.70605 -2.978,-7.50927 -4.271,-11.3042 l 1.89355,-0.64453 c 1.27832,3.75293 2.69971,7.51514 4.22412,11.18116 z m 346.13184,-11.53271 -1.89453,-0.6416 c 1.27637,-3.76563 2.44336,-7.62061 3.46875,-11.4585 l 1.93164,0.5166 c -1.03613,3.8794 -2.21582,7.77686 -3.50586,11.5835 z M 285.4613,373.99789 c -1.042,-3.87988 -1.96778,-7.84521 -2.75244,-11.78515 l 1.96191,-0.39063 c 0.77539,3.89746 1.69141,7.81934 2.72217,11.65723 z m 360.16748,-12.02295 -1.96289,-0.38769 c 0.77148,-3.89746 1.42285,-7.87207 1.93652,-11.81348 l 1.98242,0.25879 c -0.51855,3.98437 -1.17773,8.00244 -1.95605,11.94238 z M 280.7377,350.27328 c -0.52294,-3.97314 -0.92236,-8.02441 -1.188,-12.042 l 1.99609,-0.13184 c 0.26221,3.97461 0.65772,7.98243 1.17481,11.91309 z m 368.02,-12.28512 -1.99609,-0.12891 c 0.25488,-3.95166 0.38477,-7.97705 0.38477,-11.96484 l -10e-4,-0.47461 h 2 l 10e-4,0.46826 c -2e-5,4.03659 -0.13088,8.10544 -0.38868,12.1001 z m -367.6123,-11.855 h -2 l 4.9e-4,-0.24512 c 0,-3.94043 0.12549,-7.92871 0.37353,-11.84766 l 1.9961,0.126 c -0.24512,3.87744 -0.36963,7.82324 -0.36963,11.728 z m 365.585,-12.67774 c -0.26562,-3.96728 -0.666,-7.9751 -1.18945,-11.91162 l 1.98242,-0.26367 c 0.5293,3.98 0.93359,8.03125 1.20312,12.0415 z m -364.07135,-11.20558 -1.9834,-0.25585 c 0.51368,-3.98438 1.167,-8.00342 1.94043,-11.94532 l 1.96289,0.38575 c -0.76562,3.89843 -1.41162,7.87402 -1.91992,11.81542 z m 360.915,-12.51416 c -0.78027,-3.895 -1.70117,-7.81543 -2.7373,-11.65332 l 1.93164,-0.52148 c 1.04687,3.88037 1.97754,7.84424 2.7666,11.78223 z m -356.30367,-10.96582 -1.93262,-0.51367 c 1.03223,-3.88574 2.20752,-7.78467 3.49268,-11.58838 l 1.89453,0.63965 c -1.271,3.76221 -2.43311,7.6187 -3.45459,11.4624 z m 350.06738,-12.1357 c -1.28418,-3.75586 -2.71,-7.51562 -4.23828,-11.17529 l 1.8457,-0.77051 c 1.54493,3.7002 2.98633,7.50147 4.28516,11.29834 z m -342.40429,-10.55228 -1.84864,-0.76368 c 1.53516,-3.71582 3.21485,-7.43066 4.99268,-11.0415 l 1.79394,0.88379 c -1.7583,3.57129 -3.41992,7.2456 -4.93798,10.92139 z m 333.20019,-11.5 c -1.75976,-3.54541 -3.667,-7.08838 -5.66894,-10.53174 l 1.72851,-1.00489 c 2.02442,3.48047 3.95215,7.063 5.73145,10.647 z m -322.61767,-9.99414 -1.73243,-0.999 c 2.00733,-3.48 4.15772,-6.9414 6.39209,-10.2876 l 1.66309,1.11036 c -2.20996,3.31051 -4.3374,6.73434 -6.32275,10.17624 z m 310.60009,-10.67872 c -2.21875,-3.2998 -4.57324,-6.56591 -6.998,-9.708 l 1.584,-1.22168 c 2.4502,3.17627 4.83106,6.478 7.07422,9.81347 z m -297.30371,-9.23779 -1.5874,-1.2168 c 2.44531,-3.18994 5.02734,-6.34082 7.67432,-9.36425 l 1.50488,1.31738 c -2.61865,2.99121 -5.17285,6.10791 -7.5918,9.26367 z m 282.68848,-9.7041 c -2.624,-2.978 -5.38281,-5.91211 -8.20313,-8.72119 l 1.41211,-1.417 c 2.84961,2.83935 5.63965,5.80566 8.291,8.81591 z m -266.92041,-8.30859 -1.416,-1.41211 c 2.83789,-2.84473 5.80567,-5.63282 8.8208,-8.28614 l 1.32129,1.501 c -2.98293,2.62547 -5.91896,5.38328 -8.72609,8.19725 z m 249.96338,-8.583 c -2.9961,-2.61963 -6.11426,-5.17188 -9.26758,-7.58594 l 1.21484,-1.58789 c 3.18848,2.43994 6.34082,5.02 9.36914,7.668 z m -231.99854,-7.2251 -1.2207,-1.584 c 3.18066,-2.45118 6.48437,-4.82911 9.81836,-7.06787 l 1.11523,1.66015 c -3.29834,2.21486 -6.5664,4.56744 -9.71289,6.99171 z m 212.98584,-7.32812 c -3.30859,-2.20606 -6.73437,-4.33106 -10.18066,-6.31641 l 0.998,-1.7334 c 3.48438,2.00733 6.94727,4.15576 10.292,6.38574 z m -193.12793,-6.00586 -1.0039,-1.7295 c 3.46923,-2.01416 7.05224,-3.94043 10.6499,-5.72509 l 0.88867,1.792 c -3.55859,1.76512 -7.10254,3.67039 -10.53467,5.66258 z m 172.3711,-5.94825 c -3.57227,-1.75634 -7.24707,-3.415 -10.92383,-4.93115 l 0.76172,-1.84863 c 3.71777,1.53223 7.43359,3.20947 11.04492,4.98486 z m -150.95559,-4.67286 -0.76953,-1.84619 c 3.70556,-1.54346 7.50781,-2.98291 11.30127,-4.27783 l 0.64648,1.89258 c -3.75242,1.28125 -7.51316,2.70508 -11.17822,4.23144 z m 128.80225,-4.46 c -3.76563,-1.269 -7.62305,-2.42871 -11.46387,-3.44678 l 0.51172,-1.93359 c 3.88379,1.0293 7.7832,2.20166 11.59082,3.48486 z m -106.17383,-3.26269 -0.51953,-1.93164 c 3.87744,-1.04395 7.84179,-1.97217 11.78222,-2.75977 l 0.39258,1.96094 c -3.89842,0.77933 -7.81931,1.69779 -11.65525,2.73051 z m 83.043,-2.86768 c -3.89453,-0.76221 -7.87012,-1.40527 -11.81641,-1.91211 l 0.25391,-1.9834 c 3.98925,0.51172 8.00879,1.16211 11.94726,1.93262 z m -59.57911,-1.82031 -0.26171,-1.98242 c 3.97265,-0.52539 8.02343,-0.92774 12.042,-1.19532 l 0.13281,1.99561 c -3.97463,0.26469 -7.98341,0.66262 -11.91311,1.18217 z m 35.84571,-1.228 c -3.83887,-0.24023 -7.74512,-0.3623 -11.61035,-0.3623 l -0.35645,4.8e-4 v -2 l 0.35254,-4.8e-4 c 3.91113,0 7.85938,0.123 11.73926,0.36621 z" />
    <path
       style="fill:#2f2e41"
       inkscape:connector-curvature="0"
       id="path14"
       d="m 451.57885,80.172704 h -6e-5 c -27.71759,0 -47.8963,18.82032 -54.69879,45.690186 l -8.43286,40.30981 h 6 l 13,-33 -2.73682,33 h 6.73682 l 5,-17 -1.05261,17 h 81.05261 V 125.04092 A 44.86825,44.86825 0 0 0 451.57885,80.172704 Z" />
    <path
       style="fill:#a0616a"
       inkscape:connector-curvature="0"
       id="path16"
       d="m 439.94714,132.6727 c 0,0 4,24 -6,28 -10,4 -11,4 -11,4 l 18,55 22,7 24,-65 -11,-5 c 0,0 -11,-15 -7,-24 z" />
    <path
       style="fill:#2f2e41"
       inkscape:connector-curvature="0"
       id="path18"
       d="m 404.94714,321.6727 c 0,0 -20,24 -15,107 l -1,24 c 0,0 -52,135 -18,142 34,7 37,12 40,4 3,-8 51,-192 51,-192 0,0 39,191 58,189 19,-2 44,4 43,-11 -1,-15 -24,-130 -24,-130 0,0 -5,-137 -31,-145 -26,-8 -79,-11 -103,12 z" />
    <path
       style="fill:#2f2e41"
       inkscape:connector-curvature="0"
       id="path20"
       d="m 378.94714,587.6727 -9,23 c 0,0 -16,22 -6,25 10,3 24,-5 24,-5 0,0 8,-30 8,-38 z" />
    <path
       style="fill:#2f2e41"
       inkscape:connector-curvature="0"
       id="path22"
       d="m 544.94714,587.6727 9,23 c 0,0 16,22 6,25 -10,3 -24,-5 -24,-5 0,0 -8,-30 -8,-38 z" />
    <circle
       style="fill:#a0616a"
       id="circle24"
       r="25"
       cy="119.67271"
       cx="452.94714" />
    <path
       style="fill:#3f3d56"
       inkscape:connector-curvature="0"
       id="path26"
       d="m 456.94714,200.6727 c 0,0 -22,-10 -31,-39 l -16,5 c 0,0 5,32 2,39 0,0 -4,101 -2,103 2,2 -16,19 -10,21 6,2 38,-3 34,-9 l -4,-6 68,1 c 0,0 -5,14 9,14 14,0 6,-27 6,-27 l -9,-93 c 0,0 -10,-34 -7,-46 l -14,-5 c 0,0 -8,29 -26,42 z" />
    <polygon
       style="fill:#2f2e41"
       transform="translate(227.44714,-56.082856)"
       id="polygon28"
       points="204.597,170 208.597,162 207.755,170 230.597,170 233.597,164 232.966,170 260.597,170 241.597,140 199.597,141 189.597,170 " />
    <rect
       style="fill:#f2f2f2"
       id="rect48"
       height="148"
       width="261"
       y="364.17273"
       x="323.44714" />
    <polygon
       style="fill:#3f3d56"
       transform="translate(227.44714,-56.082856)"
       id="polygon50"
       points="264.41,567.256 264.41,569.256 96,569.256 96,419.256 359,419.256 359,478.204 357,478.204 357,421.256 98,421.256 98,567.256 " />
    <path
       style="fill:#a0616a"
       inkscape:connector-curvature="0"
       id="path52"
       d="m 412.44714,166.1727 c 0,0 -21,-1 -21,16 0,17 2,71 2,71 l 2,17 -1,69 c 0,0 -19,43 -6,44 13,1 20,-39 20,-39 l 4,-36 c 0,0 -2.5,-97.5 0.5,-101.5 z" />
    <path
       style="fill:#a0616a"
       inkscape:connector-curvature="0"
       id="path54"
       d="m 496.44714,163.1727 c 0,0 21,-1 21,16 0,17 -2,71 -2,71 l -2,17 1,69 c 0,0 19,43 6,44 -13,1 -20,-39 -20,-39 l -4,-36 c 0,0 2.5,-97.5 -0.5,-101.5 z" />
    <circle
       style="fill:#94c2ed"
       id="circle56"
       r="46"
       cy="438.17273"
       cx="455.44714" />
    <polygon
       style="fill:#ffffff"
       transform="translate(227.44714,-56.082856)"
       id="polygon58"
       points="231,491.256 231,463.256 225,463.256 225,491.256 197,491.256 197,497.256 225,497.256 225,525.256 231,525.256 231,497.256 259,497.256 259,491.256 " />
    <rect
       style="fill:#2f2e41;stroke-width:0.76762676"
       x="227.44714"
       id="rect76"
       height="2"
       width="470.81143"
       y="635.17267" />
  </g>
</svg>
